<svg xmlns="http://www.w3.org/2000/svg" viewBox="0 0 512 512" width="512" height="512">
  <style>
    path {
      fill: #1E3C87;
    }
  </style>
  <rect width="512" height="512" fill="#FFFFFF" />
  <g transform="translate(126.4, 52.5) scale(3.65)">
    <path d="M71,111.5h-12.2c-5.4,0-10.2-1.6-14.3-4.7-4.1-3.1-6.2-7-6.2-11.7v-22.3c0-5.1-.8-8.6-2.4-10.4-1.6-1.9-4.7-2.8-9.3-2.8h-4v51.9H0V0H22.5V47.3h5.7c1.9,.2,3.4-.4,4.6-1.5,1.2-1.2,1.9-4.3,2.2-9.4L36.5,0h21l-1.6,33.1c-.3,5.4-1.6,9.3-3.8,11.6-2.2,2.3-5.5,3.9-9.9,5,5.7,.7,10.1,2.7,13,5.9,3,3.2,4.4,7.4,4.4,12.7v16.5c0,6.7,.8,10.7,2.4,12.1,1.6,1.4,4.6,2.1,8.9,2.1v12.6" />
  </g>
</svg>